<svg xmlns="http://www.w3.org/2000/svg" viewBox="0 0 1200 630" fill="none">
  <defs>
    <linearGradient id="bg" x1="0" y1="0" x2="1200" y2="630" gradientUnits="userSpaceOnUse">
      <stop offset="0%" stop-color="#0f172a"/>
      <stop offset="100%" stop-color="#1e293b"/>
    </linearGradient>
    <linearGradient id="accent" x1="0" y1="0" x2="1" y2="1">
      <stop offset="0%" stop-color="#10B981"/>
      <stop offset="100%" stop-color="#059669"/>
    </linearGradient>
  </defs>
  <!-- Background -->
  <rect width="1200" height="630" fill="url(#bg)"/>
  <!-- Grid lines subtle -->
  <line x1="0" y1="210" x2="1200" y2="210" stroke="rgba(255,255,255,0.03)" stroke-width="1"/>
  <line x1="0" y1="420" x2="1200" y2="420" stroke="rgba(255,255,255,0.03)" stroke-width="1"/>
  <line x1="400" y1="0" x2="400" y2="630" stroke="rgba(255,255,255,0.03)" stroke-width="1"/>
  <line x1="800" y1="0" x2="800" y2="630" stroke="rgba(255,255,255,0.03)" stroke-width="1"/>

  <!-- Left: File tree panel -->
  <rect x="60" y="120" width="280" height="400" rx="12" fill="rgba(255,255,255,0.04)" stroke="rgba(255,255,255,0.08)" stroke-width="1"/>
  <!-- Panel header -->
  <rect x="60" y="120" width="280" height="36" rx="12" fill="rgba(255,255,255,0.06)"/>
  <rect x="60" y="144" width="280" height="12" fill="rgba(255,255,255,0.06)"/>
  <circle cx="86" cy="138" r="5" fill="#ef4444" opacity="0.7"/>
  <circle cx="104" cy="138" r="5" fill="#f59e0b" opacity="0.7"/>
  <circle cx="122" cy="138" r="5" fill="#10B981" opacity="0.7"/>
  <!-- Tree items -->
  <rect x="80" y="172" width="12" height="12" rx="2" fill="#10B981" opacity="0.6"/>
  <rect x="100" y="174" width="120" height="8" rx="4" fill="rgba(255,255,255,0.25)"/>
  <rect x="96" y="194" width="8" height="8" rx="1" fill="#60a5fa" opacity="0.6"/>
  <rect x="112" y="196" width="100" height="6" rx="3" fill="rgba(255,255,255,0.18)"/>
  <rect x="96" y="212" width="8" height="8" rx="1" fill="#60a5fa" opacity="0.6"/>
  <rect x="112" y="214" width="80" height="6" rx="3" fill="rgba(255,255,255,0.18)"/>
  <rect x="96" y="230" width="8" height="8" rx="1" fill="#f59e0b" opacity="0.6"/>
  <rect x="112" y="232" width="110" height="6" rx="3" fill="rgba(255,255,255,0.15)"/>
  <rect x="80" y="252" width="12" height="12" rx="2" fill="#10B981" opacity="0.5"/>
  <rect x="100" y="254" width="90" height="8" rx="4" fill="rgba(255,255,255,0.2)"/>
  <rect x="96" y="274" width="8" height="8" rx="1" fill="#f59e0b" opacity="0.6"/>
  <rect x="112" y="276" width="95" height="6" rx="3" fill="rgba(255,255,255,0.15)"/>

  <!-- Center: Code viewer -->
  <rect x="380" y="120" width="440" height="400" rx="12" fill="rgba(255,255,255,0.04)" stroke="rgba(255,255,255,0.08)" stroke-width="1"/>
  <rect x="380" y="120" width="440" height="36" rx="12" fill="rgba(255,255,255,0.06)"/>
  <rect x="380" y="144" width="440" height="12" fill="rgba(255,255,255,0.06)"/>
  <!-- Code lines -->
  <rect x="400" y="172" width="60" height="7" rx="3" fill="#c084fc" opacity="0.7"/>
  <rect x="468" y="172" width="40" height="7" rx="3" fill="#60a5fa" opacity="0.7"/>
  <rect x="516" y="172" width="80" height="7" rx="3" fill="rgba(255,255,255,0.3)"/>
  <rect x="416" y="190" width="50" height="7" rx="3" fill="#10B981" opacity="0.7"/>
  <rect x="474" y="190" width="30" height="7" rx="3" fill="rgba(255,255,255,0.4)"/>
  <rect x="512" y="190" width="90" height="7" rx="3" fill="#f59e0b" opacity="0.7"/>
  <rect x="416" y="208" width="120" height="7" rx="3" fill="rgba(255,255,255,0.2)"/>
  <rect x="416" y="226" width="70" height="7" rx="3" fill="#c084fc" opacity="0.5"/>
  <rect x="494" y="226" width="100" height="7" rx="3" fill="rgba(255,255,255,0.25)"/>
  <rect x="416" y="244" width="40" height="7" rx="3" fill="#10B981" opacity="0.6"/>
  <rect x="464" y="244" width="140" height="7" rx="3" fill="rgba(255,255,255,0.2)"/>
  <rect x="416" y="262" width="85" height="7" rx="3" fill="#60a5fa" opacity="0.5"/>
  <rect x="400" y="280" width="30" height="7" rx="3" fill="#c084fc" opacity="0.7"/>
  <!-- Highlight line -->
  <rect x="380" y="300" width="440" height="22" fill="rgba(16,185,129,0.08)"/>
  <rect x="400" y="304" width="55" height="7" rx="3" fill="#10B981" opacity="0.8"/>
  <rect x="463" y="304" width="110" height="7" rx="3" fill="rgba(255,255,255,0.35)"/>
  <rect x="416" y="338" width="95" height="7" rx="3" fill="rgba(255,255,255,0.18)"/>
  <rect x="416" y="356" width="60" height="7" rx="3" fill="#f59e0b" opacity="0.5"/>

  <!-- Right: Chat panel -->
  <rect x="860" y="120" width="280" height="400" rx="12" fill="rgba(255,255,255,0.04)" stroke="rgba(255,255,255,0.08)" stroke-width="1"/>
  <rect x="860" y="120" width="280" height="36" rx="12" fill="rgba(255,255,255,0.06)"/>
  <rect x="860" y="144" width="280" height="12" fill="rgba(255,255,255,0.06)"/>
  <!-- Chat bubbles AI -->
  <rect x="876" y="172" width="180" height="50" rx="10" fill="rgba(16,185,129,0.15)" stroke="rgba(16,185,129,0.2)" stroke-width="1"/>
  <rect x="888" y="184" width="140" height="6" rx="3" fill="rgba(255,255,255,0.3)"/>
  <rect x="888" y="198" width="110" height="6" rx="3" fill="rgba(255,255,255,0.2)"/>
  <rect x="888" y="212" width="90" height="6" rx="3" fill="rgba(255,255,255,0.15)"/>
  <!-- Chat bubble user -->
  <rect x="996" y="238" width="128" height="36" rx="10" fill="rgba(255,255,255,0.08)"/>
  <rect x="1008" y="250" width="90" height="6" rx="3" fill="rgba(255,255,255,0.25)"/>
  <rect x="1008" y="264" width="60" height="6" rx="3" fill="rgba(255,255,255,0.15)"/>
  <!-- AI response -->
  <rect x="876" y="290" width="200" height="64" rx="10" fill="rgba(16,185,129,0.15)" stroke="rgba(16,185,129,0.2)" stroke-width="1"/>
  <rect x="888" y="302" width="150" height="6" rx="3" fill="rgba(255,255,255,0.3)"/>
  <rect x="888" y="316" width="120" height="6" rx="3" fill="rgba(255,255,255,0.2)"/>
  <rect x="888" y="330" width="160" height="6" rx="3" fill="rgba(255,255,255,0.18)"/>
  <rect x="888" y="344" width="100" height="6" rx="3" fill="rgba(255,255,255,0.12)"/>
  <!-- Audio wave -->
  <rect x="876" y="438" width="244" height="60" rx="8" fill="rgba(16,185,129,0.08)" stroke="rgba(16,185,129,0.15)" stroke-width="1"/>
  <rect x="896" y="462" width="4" height="14" rx="2" fill="#10B981" opacity="0.8"/>
  <rect x="906" y="456" width="4" height="26" rx="2" fill="#10B981" opacity="0.9"/>
  <rect x="916" y="460" width="4" height="18" rx="2" fill="#10B981" opacity="0.7"/>
  <rect x="926" y="452" width="4" height="34" rx="2" fill="#10B981"/>
  <rect x="936" y="458" width="4" height="22" rx="2" fill="#10B981" opacity="0.8"/>
  <rect x="946" y="463" width="4" height="12" rx="2" fill="#10B981" opacity="0.6"/>
  <rect x="956" y="455" width="4" height="28" rx="2" fill="#10B981" opacity="0.9"/>
  <rect x="966" y="461" width="4" height="16" rx="2" fill="#10B981" opacity="0.7"/>
  <rect x="976" y="453" width="4" height="32" rx="2" fill="#10B981"/>
  <rect x="986" y="460" width="4" height="18" rx="2" fill="#10B981" opacity="0.8"/>

  <!-- Main title -->
  <text x="600" y="570" text-anchor="middle" font-family="monospace, 'Courier New'" font-weight="700" font-size="48" fill="#10B981">Code Study</text>
  <text x="600" y="610" text-anchor="middle" font-family="sans-serif" font-weight="400" font-size="22" fill="rgba(255,255,255,0.5)">Learn any codebase with AI voice sessions</text>

  <!-- Top accent bar -->
  <rect x="0" y="0" width="1200" height="4" fill="url(#accent)"/>
</svg>
